<?xml version="1.0" encoding="UTF-8" standalone="no"?><!DOCTYPE svg PUBLIC "-//W3C//DTD SVG 1.1//EN" "http://www.w3.org/Graphics/SVG/1.1/DTD/svg11.dtd"><svg width="100%" height="100%" viewBox="0 0 359 72" version="1.1" xmlns="http://www.w3.org/2000/svg" xmlns:xlink="http://www.w3.org/1999/xlink" xml:space="preserve" xmlns:serif="http://www.serif.com/" fill="#a82423" style="fill-rule:evenodd;clip-rule:evenodd;stroke-linejoin:round;stroke-miterlimit:1.41421;"><path d="M240.604,0.119c19.692,0 35.679,15.987 35.679,35.678c0,19.692 -15.987,35.679 -35.679,35.679c-19.691,0 -35.678,-15.987 -35.678,-35.679c0,-19.691 15.987,-35.678 35.678,-35.678Zm0.41,13.305c12.346,0 22.37,10.024 22.37,22.371c0,12.346 -10.024,22.37 -22.37,22.37c-12.347,0 -22.371,-10.024 -22.371,-22.37c0,-12.347 10.024,-22.371 22.371,-22.371Z"/><path d="M3.104,0.001c0,0 -3.099,-0.113 -3.1,2.329c0,2.442 0,9.573 0,9.573c0,0 0.767,2.221 3.1,2.221c2.333,0 31.376,0 31.376,0c0,0 15.033,3.689 14.606,20.626c-0.426,16.937 -14.606,22.712 -14.606,22.712l-31.376,0c0,0 -3.1,-0.223 -3.1,1.577c0,1.794 0,10.725 0,10.725c0,0 0.755,1.762 3.1,1.749c4.193,-0.023 32.302,0.001 32.459,0c1.24,-0.007 27.414,-6.227 27.225,-36.763c-0.19,-30.536 -27.225,-34.749 -27.225,-34.749l-32.459,0Z"/><path d="M74.444,2.33l0,65.794c0,0 -0.382,3.321 2.001,3.348c2.695,0.032 7.323,0 9.309,0c1.412,0 2.21,-0.417 2.197,-3.139c-0.004,-0.728 0,-66.003 0,-66.003c0,0 0.27,-2.408 -2.197,-2.377c-1.631,0.021 -7.415,0 -9.309,0c0,0 -2.001,-0.089 -2.001,2.377Z"/><path d="M180.194,2.33l0,65.794c0,0 -0.382,3.321 2.001,3.348c2.695,0.032 7.323,0 9.309,0c1.412,0 2.21,-0.417 2.197,-3.139c-0.004,-0.728 0,-66.003 0,-66.003c0,0 0.27,-2.408 -2.197,-2.377c-1.631,0.021 -7.415,0 -9.309,0c0,0 -2.001,-0.089 -2.001,2.377Z"/><path d="M345.194,2.33l0,65.794c0,0 -0.382,3.321 2.001,3.348c2.695,0.032 7.323,0 9.309,0c1.412,0 2.21,-0.417 2.197,-3.139c-0.004,-0.728 0,-66.003 0,-66.003c0,0 0.27,-2.408 -2.197,-2.377c-1.631,0.021 -7.415,0 -9.309,0c0,0 -2.001,-0.089 -2.001,2.377Z"/><path d="M289.693,71.475l-0.248,-0.003c-2.383,-0.027 -2.001,-3.348 -2.001,-3.348l0,-65.794c0,-2.466 2.001,-2.377 2.001,-2.377c1.894,0 7.678,0.021 9.309,0c2.467,-0.031 2.197,2.377 2.197,2.377c0,0 -0.002,37.101 -0.002,55.673l33.319,0c1.642,0 1.583,2.001 1.583,2.001c0,1.894 -0.014,7.678 0,9.309c0.021,2.467 -1.583,2.197 -1.583,2.197c0,0 -43.464,-0.004 -43.95,0c-0.233,0.002 -0.44,-0.01 -0.625,-0.035Z"/><path d="M169.395,30.525c0.256,1.72 0.388,3.481 0.388,5.272c0,19.692 -15.987,35.679 -35.679,35.679c-19.691,0 -35.678,-15.987 -35.678,-35.679c0,-19.691 15.987,-35.678 35.678,-35.678c15.845,0 29.292,10.351 33.94,24.655l-14.062,0c-3.847,-6.775 -11.128,-11.35 -19.468,-11.35c-12.347,0 -22.371,10.024 -22.371,22.371c0,12.346 10.024,22.37 22.371,22.37c9.406,0 17.464,-5.818 20.769,-14.048c-8.182,0.02 -22.104,-0.02 -22.332,-0.016c-1.045,0.018 -0.936,-2.197 -0.936,-2.197c0,0 -0.005,-6.613 0,-9.309c0.003,-1.97 0.936,-2.001 0.936,-2.001l36.444,-0.069Z"/></svg>