<?xml version="1.0" encoding="UTF-8" standalone="no"?><!DOCTYPE svg PUBLIC "-//W3C//DTD SVG 1.1//EN" "http://www.w3.org/Graphics/SVG/1.1/DTD/svg11.dtd"><svg width="100%" height="100%" viewBox="0 0 564 200" version="1.1" xmlns="http://www.w3.org/2000/svg" xmlns:xlink="http://www.w3.org/1999/xlink" xml:space="preserve" xmlns:serif="http://www.serif.com/" style="fill-rule:evenodd;clip-rule:evenodd;stroke-linecap:round;stroke-linejoin:round;stroke-miterlimit:1.5;"><path d="M155.003,0.448c69.43,-1.987 98.522,36.876 98.522,82.298c0,45.421 -29.104,84.666 -98.522,82.298c-38.326,-1.308 -145.914,-36.877 -145.914,-82.298c0,-45.422 114.195,-81.391 145.914,-82.298Z" style="fill:url(#_Radial1);stroke:#d0d0d0;stroke-width:0.75px;"/><path d="M417.627,1.372c-69.43,-1.986 -98.522,36.877 -98.522,82.298c0,45.422 29.104,84.666 98.522,82.298c38.326,-1.308 145.914,-36.876 145.914,-82.298c0,-45.421 -114.195,-81.39 -145.914,-82.298Z" style="fill:url(#_Radial2);stroke:#d0d0d0;stroke-width:0.75px;"/><path d="M5.613,111.289l-5.613,0l8.636,-8.636l8.636,8.636l-5.613,0l0,83.461l-6.046,0l0,-83.461Z"/><text x="23.061px" y="194.319px" style="font-family:'ArialMT', 'Arial', sans-serif;font-size:22.5px;">Little Endian</text><path d="M314.638,111.289l-5.614,0l8.636,-8.636l8.636,8.636l-5.613,0l0,83.461l-6.045,0l0,-83.461Z"/><text x="332.086px" y="194.319px" style="font-family:'ArialMT', 'Arial', sans-serif;font-size:22.5px;">Big Endian</text><defs><radialGradient id="_Radial1" cx="0" cy="0" r="1" gradientUnits="userSpaceOnUse" gradientTransform="matrix(244.436,0,0,244.436,9.08864,82.7603)"><stop offset="0" style="stop-color:#fff;stop-opacity:1"/><stop offset="0.16" style="stop-color:#fff3e9;stop-opacity:1"/><stop offset="1" style="stop-color:#ffd1ac;stop-opacity:1"/></radialGradient><radialGradient id="_Radial2" cx="0" cy="0" r="1" gradientUnits="userSpaceOnUse" gradientTransform="matrix(244.436,0,0,244.436,563.541,83.6846)"><stop offset="0" style="stop-color:#fff;stop-opacity:1"/><stop offset="0.16" style="stop-color:#fff3e9;stop-opacity:1"/><stop offset="1" style="stop-color:#ffd1ac;stop-opacity:1"/></radialGradient></defs></svg>